<?xml version="1.0" encoding="UTF-8"?>
<svg width="118px" height="228px" viewBox="0 0 118 228" version="1.1" xmlns="http://www.w3.org/2000/svg" xmlns:xlink="http://www.w3.org/1999/xlink">
    <title>VERDE OFF</title>
    <g id="VERDE-OFF" stroke="none" stroke-width="1" fill="none" fill-rule="evenodd">
        <g id="LED">
            <g id="Pins" transform="translate(26, 131)" fill="#FFFFFF" stroke="#505050" stroke-width="5">
                <g id="Pin">
                    <rect id="Rectangle" x="5.5" y="2.5" width="9" height="92" rx="4.5"></rect>
                    <path d="M16.5,2.5 L16.5,37 C16.5,37.6903559 16.220178,38.3153559 15.767767,38.767767 C15.3153559,39.220178 14.6903559,39.5 14,39.5 L5,39.5 C4.30964406,39.5 3.68464406,39.220178 3.23223305,38.767767 C2.77982203,38.3153559 2.5,37.6903559 2.5,37 L2.5,2.5 L16.5,2.5 Z" id="Rectangle"></path>
                </g>
                <g id="Pin" transform="translate(48, 0)">
                    <rect id="Rectangle" x="5.5" y="2.5" width="9" height="92" rx="4.5"></rect>
                    <path d="M16.5,2.5 L16.5,37 C16.5,37.6903559 16.220178,38.3153559 15.767767,38.767767 C15.3153559,39.220178 14.6903559,39.5 14,39.5 L5,39.5 C4.30964406,39.5 3.68464406,39.220178 3.23223305,38.767767 C2.77982203,38.3153559 2.5,37.6903559 2.5,37 L2.5,2.5 L16.5,2.5 Z" id="Rectangle"></path>
                </g>
            </g>
            <path d="M60,3.5 C72.2883357,3.5 83.4133357,8.48083216 91.4662518,16.5337482 C99.5191678,24.5866643 104.5,35.7116643 104.5,48 L104.5,134.5 L14.5,134.5 L14.5,48.5 C14.5,36.0735931 19.5367966,24.8235931 27.6801948,16.6801948 C35.8235931,8.53679656 47.0735931,3.5 59.5,3.5 L60,3.5 Z" id="Rectangle" stroke="#008B00" stroke-width="7" fill="#09AF00"></path>
            <rect id="Rectangle" stroke="#008B00" stroke-width="7" fill="#09AF00" x="3.5" y="112.5" width="111" height="22" rx="11"></rect>
            <g id="DIODOS-Y-LUCES" transform="translate(27.1345, 17.5)">
                <g id="Group" opacity="0.500700451" transform="translate(9.184, 52)" fill="#FFFFFF">
                    <polygon id="Path" points="0 39.5 0 0 4.31937043 0 17.2428095 18.4754367 17.2428095 28.6863395 8.03898581 28.6863395 8.03898581 39.5"></polygon>
                    <polygon id="Path-2" points="15.4592682 0 44.8411709 0 44.8411709 39.5 36.1317473 39.5 36.1317473 28.5791917 27.2461239 28.5791917 27.2461239 18.7905775"></polygon>
                </g>
                <path d="M0.184078043,44.4988059 C-0.638315115,32.6241635 1.2949049,22.5895652 5.98373808,14.3950109 C10.6725713,6.2004566 18.1331489,1.40211964 28.3654711,0" id="Line" stroke="#FFFFFF" stroke-width="10" stroke-linecap="round"></path>
            </g>
        </g>
    </g>
</svg>